<?xml version="1.0" encoding="iso-8859-1"?>
<!-- Generator: Adobe Illustrator 19.0.0, SVG Export Plug-In . SVG Version: 6.00 Build 0)  -->
<svg version="1.1" id="Layer_1" xmlns="http://www.w3.org/2000/svg" xmlns:xlink="http://www.w3.org/1999/xlink" x="0px" y="0px"
	 viewBox="0 0 512 512" style="enable-background:new 0 0 512 512;" xml:space="preserve">
<path style="fill:#D7CCC8;" d="M330.4,292.8c2.8,17.6,8.4,47.6,19.6,92.8c22.8,91.6-28,118.4-94.4,118.4h-0.8
	c-66.4,0-117.2-26.8-94.4-118.4c11.2-45.2,16.8-74.8,19.6-92.4v-0.4c11.2-1.6,22.4-2.8,32.8-4l83.2-0.4
	C307.2,289.6,318.8,291.2,330.4,292.8C330.4,292.4,330.4,292.8,330.4,292.8z"/>
<path style="fill:#BCAAA4;" d="M255.6,285.6c-11.6,0-26.4,1.2-42.4,3.2h-32.4v-0.4l160.8-23.2c-28.8-7.6-58.4-11.2-85.2-11.2
	c-55.6,0-124,16.4-170,48.4v0.4c-4.8,0.4-9.6,0.4-14,0.4c-37.6,0-68-32.4-68-84.4c0-76.4,56-210.4,252-210.4s252,134.4,252,210.4
	c0,52-30.4,84.4-68,84.4c-4.4,0-8.8,0-13.6-0.4l0,0c-14-9.6-29.6-18-46.8-24.8l46.8,24.8c-28.8-1.2-63.6-6-95.6-10
	c-12-1.6-23.6-2.8-34.4-4C280.8,286.8,267.2,285.6,255.6,285.6z"/>
<path style="fill:#A1887F;" d="M341.2,265.2l-160.8,23.2L86,302c46-32,114.4-48.4,170-48.4C282.8,254,312.8,257.6,341.2,265.2z"/>
<path d="M256,508h-0.8c-42.4,0-72.4-10.8-88.8-32c-16.4-20.8-19.6-51.6-9.6-91.6c11.2-46,16.8-75.6,19.6-92c0.4-2,2.4-3.6,4.4-3.2
	s3.6,2.4,3.2,4.4c-2.8,16.8-8.4,46.4-20,92.8c-9.2,37.2-6.4,66,8,84.4c14.8,19.2,42.8,28.8,82.4,29.2h0.8c39.6,0,67.6-10,82.4-29.2
	c14.8-18.8,17.2-47.2,8-84.4c-8.8-36-15.6-67.2-19.6-93.2c-0.4-2,1.2-4.4,3.2-4.4c2.4-0.4,4.4,1.2,4.4,3.2
	c4,25.2,10.8,57.2,19.6,92.4c10,40,6.8,70.8-9.6,91.6C328,497.2,298,508,256,508z"/>
<path d="M72,307.2c-41.6,0-72-37.2-72-88.8C0,144.4,53.6,4,256,4s256,140.4,256,214.4c0,51.2-30.4,88.4-72,88.4c-4,0-8.8,0-14-0.4
	l0,0c-26.4-1.2-58-5.2-88-9.2l-8-0.8c-11.6-1.6-23.2-2.8-34.4-4c-17.2-2-30-2.8-40-2.8c-10.4,0-24,0.8-42,2.8
	c-11.2,1.2-23.6,2.8-32.8,4l-6.4,0.8c-30.4,4-61.6,8-88.4,9.2C81.2,306.8,76.4,307.2,72,307.2z M256,12C60,12,8,147.2,8,218.4
	c0,47.6,26.4,80.8,64,80.8c4.4,0,9.2,0,14-0.4c26.4-1.2,57.6-5.2,87.6-9.2l6.4-0.8c9.2-1.2,21.6-2.8,32.8-4c18.4-2,32-3.2,43.2-3.2
	c10,0,23.2,0.8,40.8,2.8c11.2,1.2,22.8,2.8,34.4,4l8,1.2c30,4,61.2,8,87.6,8.8l0,0c5.2,0.4,9.2,0.4,13.6,0.4c37.6,0,64-33.2,64-80.4
	C504,147.2,452,12,256,12z"/>
<path d="M86,306.4c-1.2,0-2.4-0.8-3.2-1.6c-1.2-2-0.8-4.4,1.2-5.6c42.8-29.6,110.4-49.2,172.4-49.2c28,0,58,4,86.4,11.6
	c2,0.4,3.6,2.8,2.8,4.8c-0.4,2-2.8,3.6-4.8,2.8c-28-7.2-57.2-11.2-84.4-11.2c-60,0-126,18.8-167.6,47.6
	C87.6,306,86.8,306.4,86,306.4z"/>
<path d="M426.4,306.8c-0.8,0-1.6-0.4-2.4-0.8c-13.2-9.2-28.8-17.6-46-24.4c-2-0.8-3.2-3.2-2.4-5.2s3.2-3.2,5.2-2.4
	c18,7.2,34,15.6,47.6,25.2c2,1.2,2.4,3.6,0.8,5.6C428.8,306,427.6,306.8,426.4,306.8z"/>
<path d="M426.4,306.8c-0.8,0-1.2,0-2-0.4l-46.8-24.8c-2-1.2-2.8-3.6-1.6-5.6s3.6-2.8,5.6-1.6l46.8,24.8c1.2,0.8,2.4,2,2.4,3.6
	C430.4,304.8,428.4,306.8,426.4,306.8z"/>
<path d="M38.4,254.4c-1.6,0-2.8-0.8-3.6-2.4c-4.4-9.6-6.8-21.6-6.8-34.4c0-14.4,3.2-65.6,41.6-112.8c1.6-1.6,4-2,5.6-0.4
	c1.6,1.2,2,4,0.4,5.6c-36.8,45.2-40,94-40,107.6c0,11.6,2,22.4,6,31.2c0.8,2,0,4.4-2,5.2C39.6,254.4,38.8,254.4,38.4,254.4z"/>
<path d="M480,221.6c-2.4,0-4-1.6-4-4c0-7.2-0.8-22-5.6-40.4c-7.2-27.2-20.4-51.6-38.8-72.8c-8-9.2-17.2-17.6-27.2-24.8
	c-1.6-1.2-2-4-0.8-5.6s4-2,5.6-0.8c10.4,7.6,20,16.4,28.4,26c19.6,22,33.2,47.6,40.8,76c5.2,19.6,6,34.8,6,42.4
	C484,219.6,482.4,221.6,480,221.6z"/>
<path d="M370.8,59.6c-0.4,0-1.2,0-1.6-0.4C358,54,345.6,50,332.4,46.8c-2-0.4-3.6-2.8-2.8-4.8c0.4-2,2.8-3.6,4.8-2.8
	c13.6,3.2,26,7.6,38,12.8c2,0.8,2.8,3.2,2,5.2C374,58.8,372.4,59.6,370.8,59.6z"/>
<g>
</g>
<g>
</g>
<g>
</g>
<g>
</g>
<g>
</g>
<g>
</g>
<g>
</g>
<g>
</g>
<g>
</g>
<g>
</g>
<g>
</g>
<g>
</g>
<g>
</g>
<g>
</g>
<g>
</g>
</svg>
