<?xml version="1.0" encoding="iso-8859-1"?>
<!-- Generator: Adobe Illustrator 19.0.0, SVG Export Plug-In . SVG Version: 6.00 Build 0)  -->
<svg version="1.1" id="Layer_1" xmlns="http://www.w3.org/2000/svg" xmlns:xlink="http://www.w3.org/1999/xlink" x="0px" y="0px"
	 viewBox="0 0 512 512" style="enable-background:new 0 0 512 512;" xml:space="preserve">
<path style="fill:#DCE0E2;" d="M256,237.638c-92.08,0-247.916-16.137-247.916-76.614v189.952
	c0,60.477,155.836,76.614,247.916,76.614s247.916-16.137,247.916-76.614V161.024C503.916,221.501,348.08,237.638,256,237.638z"/>
<path style="fill:#EBECED;" d="M43.581,158.151c2.211,4.337,16.644,16.922,60.477,27.983c41.32,10.428,95.28,16.17,151.941,16.17
	s110.621-5.742,151.941-16.17c43.836-11.061,58.268-23.645,60.477-27.983c-2.211-4.334-16.642-16.92-60.475-27.982
	c-41.32-10.429-95.282-16.172-151.943-16.172s-110.621,5.743-151.941,16.172C60.223,141.232,45.791,153.817,43.581,158.151z"/>
<path style="fill:#E95353;" d="M448.078,256.285v-43.854C394.302,231.456,312.959,237.638,256,237.638
	c-58.235,0-141.96-6.461-195.649-26.505v189.952C114.04,421.129,197.763,427.59,256,427.59c56.96,0,138.304-6.181,192.078-25.207
	V283.229"/>
<path style="fill:#DCE0E2;" d="M256,237.638c-92.08,0-247.916-16.137-247.916-76.614c0-60.477,155.836-76.615,247.916-76.615
	s247.916,16.137,247.916,76.615S348.08,237.638,256,237.638z M43.581,158.151c2.211,4.337,16.644,16.922,60.477,27.983
	c41.32,10.428,95.28,16.17,151.941,16.17s110.621-5.742,151.941-16.17c43.836-11.061,58.268-23.645,60.477-27.983
	c-2.211-4.334-16.642-16.92-60.475-27.982c-41.32-10.429-95.282-16.172-151.943-16.172s-110.621,5.743-151.941,16.172
	C60.223,141.232,45.791,153.817,43.581,158.151z"/>
<path style="fill:#A4A4A5;" d="M256,113.998c-10.973,0-21.84,0.155-32.539,0.456l-6.467,23.769c0,5.076,5.792,9.19,12.935,9.19
	h52.143c7.143,0,12.935-4.114,12.935-9.19l-6.467-23.769C277.842,114.153,266.973,113.998,256,113.998z"/>
<g>
	<path style="fill:#EFAC52;" d="M191.263,304.875c21.042,19.63,49.263,31.659,80.31,31.659s59.267-12.029,80.31-31.659
		c-21.042-19.628-49.263-31.658-80.31-31.658C240.527,273.218,212.305,285.247,191.263,304.875z"/>
	<path style="fill:#EFAC52;" d="M156.312,282.027v45.699c13.251-5.45,25.299-13.229,35.613-22.85
		C181.61,295.254,169.563,287.476,156.312,282.027z"/>
</g>
<path style="fill:#F4B76E;" d="M305.846,278.298c-5.385,7.904-8.537,17.452-8.537,27.739c0,9.456,2.666,18.29,7.28,25.796
	c17.891-5.224,34.022-14.576,47.293-26.957C338.925,292.787,323.236,283.586,305.846,278.298z"/>
<g>
	<path style="fill:#202020;" d="M416.298,92.159C354.091,77.869,283.473,76.325,256,76.325s-98.091,1.544-160.298,15.834
		C32.199,106.748,0,129.917,0,161.024v189.952c0,31.107,32.199,54.276,95.702,68.865c51.227,11.768,108.152,14.891,141.995,15.627
		c0.427,0.01,0.85,0.018,1.275,0.027c1.629,0.033,3.207,0.061,4.719,0.084c0.437,0.006,0.871,0.013,1.305,0.018
		c1.7,0.023,3.318,0.04,4.852,0.052c0.206,0.001,0.413,0.003,0.619,0.005c1.997,0.014,3.847,0.021,5.532,0.021
		c18.137,0,55.074-0.674,95.981-5.242c28.692-3.18,59.321-8.26,86.278-16.352c0.444-0.133,0.879-0.268,1.318-0.402
		c0.932-0.285,1.859-0.572,2.782-0.864c1.442-0.455,2.859-0.917,4.257-1.384c0.342-0.114,0.686-0.225,1.026-0.341
		c0.897-0.304,1.78-0.611,2.657-0.921c0.157-0.056,0.318-0.109,0.476-0.165c0.017-0.006,0.033-0.016,0.051-0.023
		C491.441,395.592,512,375.818,512,350.976V161.024C512,129.917,479.801,106.748,416.298,92.159z M99.323,107.917
		C141.362,98.259,199.933,92.494,256,92.494s114.638,5.766,156.677,15.424c37.934,8.715,83.154,25.002,83.154,53.108
		c0,20.066-23.052,34.108-50.046,43.67c-0.135,0.04-0.272,0.069-0.405,0.116C393.816,223.055,313.743,229.554,256,229.554
		c-1.844,0-3.71-0.006-5.595-0.02c-0.112-0.001-0.224-0.002-0.336-0.003c-18.906-0.141-39.795-0.955-61.09-2.609
		c-0.086-0.006-0.174-0.013-0.26-0.019c-2.052-0.16-4.108-0.328-6.166-0.503c-0.819-0.07-1.632-0.146-2.448-0.218
		c-0.979-0.086-1.957-0.174-2.936-0.263c-1.407-0.13-2.808-0.264-4.206-0.401c-0.304-0.03-0.609-0.059-0.914-0.089
		c-12.784-1.264-25.162-2.803-36.894-4.586c-0.94-0.143-1.881-0.288-2.818-0.435c-0.69-0.108-1.379-0.218-2.064-0.328
		c-24.772-3.996-48.042-9.407-67.094-16.52c-0.168-0.063-0.341-0.105-0.511-0.156c-25.436-9.521-46.5-23.196-46.5-42.379
		C16.168,132.919,61.387,116.632,99.323,107.917z M16.168,350.976V195.232c0.653,0.609,1.333,1.212,2.026,1.811
		c0.152,0.131,0.305,0.263,0.459,0.393c0.767,0.653,1.554,1.301,2.368,1.942c0.121,0.095,0.246,0.189,0.368,0.283
		c0.794,0.618,1.608,1.231,2.447,1.838c0.095,0.069,0.186,0.139,0.282,0.207c0.876,0.629,1.783,1.251,2.707,1.868
		c0.19,0.126,0.378,0.252,0.569,0.378c0.917,0.604,1.855,1.202,2.819,1.793c0.179,0.11,0.362,0.219,0.543,0.329
		c0.978,0.593,1.974,1.181,2.998,1.762c0.051,0.028,0.098,0.057,0.149,0.086c1.053,0.595,2.139,1.182,3.241,1.766
		c0.212,0.112,0.423,0.224,0.636,0.336c1.075,0.562,2.173,1.116,3.293,1.665c0.225,0.111,0.454,0.22,0.681,0.33
		c1.164,0.563,2.344,1.122,3.557,1.672c0.08,0.037,0.164,0.072,0.244,0.109c1.179,0.534,2.385,1.06,3.611,1.58
		c0.212,0.091,0.421,0.181,0.635,0.271c0.813,0.342,1.635,0.681,2.467,1.018v172.428C31.739,379.886,16.168,367.467,16.168,350.976z
		 M495.832,350.976c0,17.434-17.402,30.319-39.67,39.672V283.229c0-4.466-3.618-8.084-8.084-8.084s-8.084,3.618-8.084,8.084v113.363
		c-22.501,7.344-49.746,12.637-77.941,16.274c-0.213,0.028-0.427,0.055-0.64,0.083c-1.913,0.245-3.83,0.484-5.751,0.714
		c-0.004,0.001-0.01,0.001-0.014,0.002c-34.515,4.13-70.02,5.841-99.646,5.841c-19.76,0-41.982-0.752-64.732-2.457
		c-0.107-0.008-0.215-0.016-0.321-0.025c-1.674-0.126-3.352-0.26-5.032-0.396c-0.684-0.056-1.368-0.112-2.051-0.169
		c-0.999-0.084-1.998-0.171-2.999-0.259c-1.108-0.097-2.216-0.194-3.319-0.295c-0.137-0.013-0.275-0.026-0.412-0.039
		c-13.316-1.232-26.242-2.758-38.498-4.551c-0.264-0.039-0.527-0.078-0.791-0.116c-1.274-0.189-2.54-0.379-3.798-0.572
		c-1.415-0.219-2.828-0.441-4.235-0.668c-0.222-0.036-0.449-0.07-0.67-0.107c-22.119-3.613-43.002-8.364-60.707-14.457V222.488
		c0.072,0.023,0.148,0.045,0.221,0.069c1.47,0.47,2.961,0.935,4.479,1.392c0.224,0.068,0.454,0.135,0.679,0.202
		c1.51,0.451,3.041,0.897,4.598,1.336c0.116,0.032,0.23,0.067,0.346,0.099c1.605,0.451,3.24,0.893,4.893,1.329
		c0.306,0.081,0.61,0.162,0.918,0.243c1.623,0.425,3.268,0.843,4.937,1.255c0.294,0.072,0.592,0.144,0.887,0.217
		c1.747,0.427,3.512,0.848,5.309,1.261c49.209,11.305,103.675,14.631,137.89,15.528c0.123,0.003,0.246,0.006,0.368,0.01
		c1.658,0.043,3.265,0.08,4.824,0.112c0.445,0.01,0.889,0.018,1.332,0.027c1.455,0.028,2.859,0.051,4.218,0.07
		c0.467,0.006,0.932,0.013,1.397,0.019c1.615,0.02,3.157,0.036,4.617,0.046c0.193,0.001,0.385,0.002,0.578,0.003
		c1.821,0.012,3.52,0.017,5.075,0.017c18.132,0,55.06-0.674,95.959-5.239c27.813-3.082,57.446-7.949,83.792-15.615
		c0.23-0.067,0.461-0.133,0.69-0.199c0.432-0.127,0.861-0.255,1.291-0.384c0.151-0.045,0.303-0.089,0.454-0.135
		c0.225-0.068,0.455-0.134,0.679-0.202c0.378-0.114,0.753-0.229,1.129-0.344v32.681c0,4.466,3.618,8.084,8.084,8.084
		c4.466,0,8.084-3.618,8.084-8.084v-38.209c0.489-0.188,0.971-0.376,1.454-0.566c0.262-0.102,0.524-0.205,0.784-0.308
		c1.289-0.511,2.558-1.027,3.801-1.551c0.212-0.089,0.421-0.18,0.633-0.271c1.228-0.523,2.437-1.05,3.62-1.585
		c0.078-0.034,0.157-0.069,0.234-0.105c1.214-0.551,2.396-1.11,3.56-1.674c0.226-0.11,0.455-0.219,0.679-0.329
		c1.121-0.55,2.219-1.105,3.294-1.665c0.213-0.111,0.424-0.223,0.635-0.335c1.103-0.583,2.188-1.171,3.242-1.766
		c0.051-0.028,0.098-0.057,0.149-0.086c1.025-0.581,2.021-1.171,3-1.764c0.18-0.109,0.361-0.218,0.539-0.327
		c0.965-0.592,1.904-1.191,2.822-1.795c0.19-0.125,0.377-0.25,0.564-0.375c0.926-0.618,1.832-1.241,2.711-1.87
		c0.094-0.068,0.184-0.136,0.278-0.204c0.841-0.608,1.657-1.222,2.453-1.842c0.121-0.094,0.244-0.186,0.363-0.28
		c0.815-0.641,1.603-1.29,2.37-1.943c0.153-0.13,0.306-0.262,0.458-0.392c0.693-0.599,1.373-1.202,2.026-1.812v155.745H495.832z"/>
	<path style="fill:#202020;" d="M322.729,358.118c-22.06,1.696-45.135,2.592-66.729,2.592c-23.22,0-47.936-1.027-71.476-2.972
		c-4.43-0.372-8.355,2.942-8.722,7.391c-0.368,4.45,2.942,8.355,7.391,8.722c23.975,1.98,49.151,3.027,72.806,3.027
		c22.001,0,45.504-0.913,67.97-2.641c4.452-0.342,7.783-4.229,7.44-8.68C331.069,361.107,327.182,357.774,322.729,358.118z"/>
	<path style="fill:#202020;" d="M322.729,385.726c-22.06,1.696-45.135,2.592-66.729,2.592c-23.22,0-47.936-1.027-71.476-2.972
		c-4.43-0.378-8.355,2.942-8.722,7.391c-0.368,4.45,2.942,8.355,7.391,8.722c23.975,1.98,49.151,3.027,72.806,3.027
		c22.001,0,45.504-0.913,67.97-2.641c4.452-0.342,7.783-4.229,7.44-8.68C331.069,388.715,327.182,385.365,322.729,385.726z"/>
	<path style="fill:#202020;" d="M354.897,296.699c-0.192-0.17-0.388-0.336-0.581-0.506c-0.696-0.608-1.397-1.208-2.105-1.8
		c-0.146-0.121-0.291-0.241-0.437-0.361c-12.878-10.669-27.595-18.574-43.341-23.394c-0.079-0.024-0.156-0.052-0.235-0.075
		c-0.016-0.005-0.033-0.006-0.05-0.011c-11.74-3.562-24.044-5.419-36.576-5.419c-29.366,0-57.481,10.153-79.996,28.727
		c-9.71-8.006-20.496-14.501-32.191-19.31c-2.495-1.026-5.336-0.739-7.574,0.761c-2.24,1.501-3.584,4.019-3.584,6.715v45.698
		c0,2.697,1.344,5.215,3.584,6.715c1.352,0.905,2.921,1.369,4.501,1.369c1.039,0,2.085-0.202,3.074-0.607
		c11.695-4.81,22.481-11.307,32.19-19.313c22.514,18.575,50.628,28.728,79.996,28.728c12.068,0,23.925-1.716,35.269-5.024
		c0.004-0.001,0.009-0.001,0.013-0.003c0.061-0.018,0.123-0.039,0.184-0.057c1.036-0.304,2.067-0.623,3.095-0.954
		c0.182-0.058,0.363-0.12,0.545-0.179c1.013-0.331,2.021-0.675,3.026-1.032c0.06-0.022,0.121-0.042,0.18-0.064
		c13.648-4.873,26.426-12.11,37.776-21.493c0.142-0.118,0.285-0.235,0.427-0.354c0.732-0.61,1.457-1.23,2.177-1.858
		c0.193-0.168,0.388-0.335,0.581-0.504c0.859-0.759,1.711-1.526,2.551-2.311c1.639-1.53,2.57-3.669,2.57-5.911
		s-0.93-4.382-2.57-5.911C356.573,298.196,355.739,297.442,354.897,296.699z M316.781,318.701c-1.085,0.494-2.184,0.957-3.284,1.414
		c-0.33,0.137-0.656,0.281-0.988,0.415c-0.863,0.349-1.736,0.674-2.609,1c-0.431,0.162-0.862,0.326-1.296,0.481
		c-2.113-5.028-3.212-10.456-3.212-15.973c0-6.283,1.409-12.396,4.108-17.963c0.296,0.109,0.593,0.218,0.888,0.33
		c0.888,0.337,1.775,0.682,2.656,1.043c0.371,0.152,0.739,0.309,1.109,0.466c1.046,0.443,2.087,0.895,3.119,1.37
		c0.171,0.079,0.341,0.161,0.511,0.24c7.699,3.594,15.003,8.082,21.692,13.354c-6.948,5.478-14.548,10.11-22.573,13.769
		C316.862,318.663,316.822,318.682,316.781,318.701z M164.396,314.913V294.84c5.314,2.92,10.368,6.271,15.133,10.036
		C174.764,308.639,169.708,311.993,164.396,314.913z M203.657,304.875c19.309-15.261,43.101-23.574,67.915-23.574
		c7.535,0,14.973,0.778,22.223,2.272c-3.004,7.055-4.57,14.664-4.57,22.462c0,6.978,1.273,13.851,3.713,20.304
		c-6.979,1.381-14.126,2.109-21.366,2.109C246.759,328.45,222.967,320.137,203.657,304.875z"/>
	<path style="fill:#202020;" d="M42.633,169.009c9.317,7.79,28.151,17.066,59.448,24.964c30.149,7.608,66.867,12.759,106.416,15.055
		c15.475,0.898,31.385,1.359,47.503,1.359c57.309,0,111.973-5.829,153.919-16.415c41.729-10.53,61.301-23.512,65.703-32.151
		c1.175-2.307,1.175-5.037-0.001-7.344c-1.651-3.239-5.437-7.089-11.722-11.192c-10.476-6.837-27.9-14.376-53.978-20.956
		c-33.433-8.438-74.947-13.85-119.438-15.701c-0.556-0.138-1.125-0.24-1.717-0.257c-6.992-0.197-14.054-0.306-21.131-0.376
		c-3.864-0.054-7.744-0.083-11.636-0.083c-3.893,0-7.773,0.029-11.638,0.083c-7.076,0.07-14.137,0.179-21.129,0.376
		c-0.591,0.016-1.16,0.119-1.717,0.257c-44.489,1.852-86.003,7.264-119.436,15.701c-26.078,6.581-43.503,14.119-53.979,20.956
		c-6.286,4.102-10.071,7.953-11.723,11.192c-1.176,2.307-1.176,5.037-0.001,7.344C37.478,163.982,39.527,166.413,42.633,169.009z
		 M405.963,178.296C365.272,188.565,312.014,194.22,256,194.22s-109.272-5.655-149.963-15.924
		c-28.835-7.276-44.248-15.248-51.098-20.144c6.851-4.895,22.264-12.868,51.098-20.144c1.272-0.321,2.556-0.637,3.851-0.95
		c29.3-7.053,64.725-11.781,102.805-13.826l-3.501,12.867c-0.188,0.692-0.283,1.406-0.283,2.122c0,9.686,9.232,17.274,21.019,17.274
		h52.143c11.787,0,21.019-7.588,21.019-17.274c0-0.717-0.096-1.43-0.284-2.122l-3.501-12.867
		c39.766,2.135,76.634,7.197,106.659,14.775c28.833,7.276,44.244,15.249,51.095,20.144
		C450.211,163.047,434.799,171.02,405.963,178.296z M282.351,122.504l4.242,15.586c-0.731,0.529-2.27,1.237-4.521,1.237h-52.143
		c-2.251,0-3.791-0.708-4.521-1.237l4.242-15.586c5.706-0.183,11.461-0.305,17.25-0.369c6.065-0.047,12.135-0.047,18.2,0
		C270.888,122.198,276.644,122.32,282.351,122.504z"/>
</g>
<g style="opacity:0.15;">
	<path style="fill:#202020;" d="M33.954,350.976V192.2H15.629v158.776c0,60.477,155.836,76.614,247.916,76.614
		c2.989,0,6.047-0.018,9.162-0.053C179.836,426.494,33.954,409.49,33.954,350.976z"/>
</g>
<g>
</g>
<g>
</g>
<g>
</g>
<g>
</g>
<g>
</g>
<g>
</g>
<g>
</g>
<g>
</g>
<g>
</g>
<g>
</g>
<g>
</g>
<g>
</g>
<g>
</g>
<g>
</g>
<g>
</g>
</svg>
